<svg width="700" height="700" viewBox="0 0 700 700" fill="none" xmlns="http://www.w3.org/2000/svg">
<path fill-rule="evenodd" clip-rule="evenodd" d="M109.348 2.4658C9.11044 20.1399 -35.4275 166.748 32.6521 254.931C65.1375 297.012 92.8845 307.383 173.342 307.523L217.971 307.603V427.502C217.971 554.972 218.983 572.477 228.003 600.769C265.455 718.228 405.442 735.816 459.24 629.822C498.517 552.438 479.32 409.852 416.367 311.384C399.023 284.253 400.127 284.413 387.283 307.1C372.857 332.572 374.56 334.597 359.084 273.567C353.81 252.766 346.887 226.107 343.699 214.321C336.882 189.117 335.116 179.023 337.522 179.023C338.481 179.023 347.544 181.935 357.66 185.493C380.507 193.529 430.123 211.39 437.348 214.181C440.307 215.323 446.84 217.703 451.868 219.473C463.943 223.724 463.588 224.876 445.952 238.62C428.275 252.397 428.435 251.793 439.599 262.997C462.352 285.826 498.593 300.65 542.771 305.193C709.743 322.371 762.973 76.3545 607.363 6.66343C594.935 1.09434 138.915 -2.7463 109.348 2.4658ZM583.69 55.5061C625.822 64.8742 653.074 103.537 652.98 153.813C652.845 225.245 607.363 265.353 538.596 254.682C505.263 249.511 505.103 248.401 534.797 227.984C548.598 218.491 559.176 209.912 558.303 208.915C557.432 207.921 545.588 202.947 531.985 197.863C518.379 192.779 497.57 184.898 485.741 180.35C473.912 175.801 448.264 166.183 428.747 158.978C409.228 151.775 386.483 143.237 378.202 140.006C352.772 130.082 272.945 100.371 270.663 99.9785C267.313 99.4014 269.12 108.529 280.246 148.366C285.921 168.694 295.631 204.045 301.821 226.925C308.011 249.806 316.252 279.87 320.132 293.737C324.013 307.603 333.685 342.773 341.626 371.891C349.567 401.01 357.277 429.228 358.759 434.597L361.452 444.358L379.276 412.538C399.49 376.446 398.769 377.017 405.924 391.431C427.773 435.439 441.269 529.76 431.605 570.894C410.865 659.182 310.381 673.482 274.523 593.254C264.689 571.248 264.849 574.321 265.052 410.967C265.156 327.077 264.491 257.065 263.572 255.381C262.328 253.099 242.266 252.138 184.554 251.6C97.737 250.787 98.7039 250.981 76.2586 229.859C21.0919 177.934 43.8037 72.0795 113.657 55.5537C126.616 52.4895 569.911 52.4448 583.69 55.5061Z" fill="white"/>
</svg>
