<svg width="2095" height="700" viewBox="0 0 2095 700" fill="none" xmlns="http://www.w3.org/2000/svg">
<path fill-rule="evenodd" clip-rule="evenodd" d="M109.348 2.4658C9.11044 20.1399 -35.4275 166.748 32.6521 254.931C65.1375 297.012 92.8845 307.383 173.342 307.523L217.971 307.603V427.502C217.971 554.972 218.983 572.477 228.003 600.769C265.455 718.228 405.442 735.816 459.24 629.822C498.517 552.438 479.32 409.852 416.367 311.384C399.023 284.253 400.127 284.413 387.283 307.1C372.857 332.572 374.56 334.597 359.084 273.567C353.81 252.766 346.887 226.107 343.699 214.321C336.882 189.117 335.116 179.023 337.522 179.023C338.481 179.023 347.544 181.935 357.66 185.493C380.507 193.529 430.123 211.39 437.348 214.181C440.307 215.323 446.84 217.703 451.868 219.473C463.943 223.724 463.588 224.876 445.952 238.62C428.275 252.397 428.435 251.793 439.599 262.997C462.352 285.826 498.593 300.65 542.771 305.193C709.743 322.371 762.973 76.3545 607.363 6.66343C594.935 1.09434 138.915 -2.7463 109.348 2.4658ZM583.69 55.5061C625.822 64.8742 653.074 103.537 652.98 153.813C652.845 225.245 607.363 265.353 538.596 254.682C505.263 249.511 505.103 248.401 534.797 227.984C548.598 218.491 559.176 209.912 558.303 208.915C557.432 207.921 545.588 202.947 531.985 197.863C518.379 192.779 497.57 184.898 485.741 180.35C473.912 175.801 448.264 166.183 428.747 158.978C409.228 151.775 386.483 143.237 378.202 140.006C352.772 130.082 272.945 100.371 270.663 99.9785C267.313 99.4014 269.12 108.529 280.246 148.366C285.921 168.694 295.631 204.045 301.821 226.925C308.011 249.806 316.252 279.87 320.132 293.737C324.013 307.603 333.685 342.773 341.626 371.891C349.567 401.01 357.277 429.228 358.759 434.597L361.452 444.358L379.276 412.538C399.49 376.446 398.769 377.017 405.924 391.431C427.773 435.439 441.269 529.76 431.605 570.894C410.865 659.182 310.381 673.482 274.523 593.254C264.689 571.248 264.849 574.321 265.052 410.967C265.156 327.077 264.491 257.065 263.572 255.381C262.328 253.099 242.266 252.138 184.554 251.6C97.737 250.787 98.7039 250.981 76.2586 229.859C21.0919 177.934 43.8037 72.0795 113.657 55.5537C126.616 52.4895 569.911 52.4448 583.69 55.5061Z" fill="white"/>
<path d="M797.65 254.801V204.091H1036.57V254.801H947.508V495H886.712V254.801H797.65ZM1142.57 499.261C1120.13 499.261 1100.81 494.716 1084.62 485.625C1068.52 476.439 1056.11 463.466 1047.4 446.705C1038.69 429.848 1034.33 409.915 1034.33 386.903C1034.33 364.46 1038.69 344.763 1047.4 327.812C1056.11 310.862 1068.38 297.652 1084.19 288.182C1100.1 278.712 1118.76 273.977 1140.16 273.977C1154.55 273.977 1167.95 276.297 1180.36 280.938C1192.86 285.483 1203.75 292.348 1213.03 301.534C1222.4 310.72 1229.69 322.273 1234.9 336.193C1240.11 350.019 1242.71 366.212 1242.71 384.773V401.392H1058.48V363.892H1185.75C1185.75 355.18 1183.86 347.462 1180.07 340.739C1176.28 334.015 1171.03 328.759 1164.3 324.972C1157.68 321.089 1149.96 319.148 1141.15 319.148C1131.97 319.148 1123.82 321.278 1116.72 325.54C1109.71 329.706 1104.22 335.341 1100.24 342.443C1096.26 349.451 1094.23 357.263 1094.13 365.881V401.534C1094.13 412.33 1096.12 421.657 1100.1 429.517C1104.17 437.377 1109.9 443.438 1117.29 447.699C1124.67 451.96 1133.43 454.091 1143.57 454.091C1150.29 454.091 1156.44 453.144 1162.03 451.25C1167.62 449.356 1172.4 446.515 1176.38 442.727C1180.36 438.939 1183.39 434.299 1185.47 428.807L1241.44 432.5C1238.59 445.947 1232.77 457.689 1223.96 467.727C1215.25 477.67 1203.98 485.436 1190.16 491.023C1176.43 496.515 1160.56 499.261 1142.57 499.261ZM1398.25 276.818V322.273H1266.86V276.818H1398.25ZM1296.69 224.545H1357.2V427.955C1357.2 433.542 1358.05 437.898 1359.76 441.023C1361.46 444.053 1363.83 446.184 1366.86 447.415C1369.99 448.646 1373.58 449.261 1377.66 449.261C1380.5 449.261 1383.34 449.025 1386.18 448.551C1389.02 447.983 1391.2 447.557 1392.71 447.273L1402.23 492.301C1399.2 493.248 1394.94 494.337 1389.45 495.568C1383.95 496.894 1377.28 497.699 1369.42 497.983C1354.83 498.551 1342.05 496.61 1331.07 492.159C1320.18 487.708 1311.7 480.795 1305.64 471.42C1299.58 462.045 1296.6 450.208 1296.69 435.909V224.545ZM1502.87 368.864V495H1442.36V204.091H1501.17V315.312H1503.72C1508.65 302.434 1516.6 292.348 1527.59 285.057C1538.57 277.67 1552.35 273.977 1568.92 273.977C1584.07 273.977 1597.28 277.292 1608.55 283.92C1619.92 290.455 1628.72 299.877 1634.97 312.188C1641.32 324.403 1644.44 339.034 1644.35 356.08V495H1583.84V366.875C1583.93 353.428 1580.52 342.964 1573.61 335.483C1566.79 328.002 1557.23 324.261 1544.92 324.261C1536.68 324.261 1529.39 326.013 1523.04 329.517C1516.79 333.021 1511.87 338.134 1508.27 344.858C1504.76 351.487 1502.96 359.489 1502.87 368.864ZM1791.4 499.261C1768.96 499.261 1749.64 494.716 1733.45 485.625C1717.35 476.439 1704.94 463.466 1696.23 446.705C1687.52 429.848 1683.16 409.915 1683.16 386.903C1683.16 364.46 1687.52 344.763 1696.23 327.812C1704.94 310.862 1717.2 297.652 1733.02 288.182C1748.93 278.712 1767.58 273.977 1788.99 273.977C1803.38 273.977 1816.78 276.297 1829.18 280.938C1841.68 285.483 1852.57 292.348 1861.85 301.534C1871.23 310.72 1878.52 322.273 1883.73 336.193C1888.94 350.019 1891.54 366.212 1891.54 384.773V401.392H1707.31V363.892H1834.58C1834.58 355.18 1832.69 347.462 1828.9 340.739C1825.11 334.015 1819.86 328.759 1813.13 324.972C1806.5 321.089 1798.79 319.148 1789.98 319.148C1780.79 319.148 1772.65 321.278 1765.55 325.54C1758.54 329.706 1753.05 335.341 1749.07 342.443C1745.09 349.451 1743.06 357.263 1742.96 365.881V401.534C1742.96 412.33 1744.95 421.657 1748.93 429.517C1753 437.377 1758.73 443.438 1766.12 447.699C1773.5 451.96 1782.26 454.091 1792.39 454.091C1799.12 454.091 1805.27 453.144 1810.86 451.25C1816.45 449.356 1821.23 446.515 1825.21 442.727C1829.18 438.939 1832.21 434.299 1834.3 428.807L1890.26 432.5C1887.42 445.947 1881.6 457.689 1872.79 467.727C1864.08 477.67 1852.81 485.436 1838.99 491.023C1825.25 496.515 1809.39 499.261 1791.4 499.261ZM1931.03 495V276.818H1989.7V314.886H1991.97C1995.95 301.345 2002.62 291.117 2012 284.205C2021.37 277.197 2032.17 273.693 2044.38 273.693C2047.41 273.693 2050.68 273.883 2054.18 274.261C2057.69 274.64 2060.77 275.161 2063.42 275.824V329.517C2060.58 328.665 2056.65 327.907 2051.63 327.244C2046.61 326.581 2042.02 326.25 2037.85 326.25C2028.95 326.25 2020.99 328.191 2013.99 332.074C2007.07 335.862 2001.58 341.165 1997.51 347.983C1993.53 354.801 1991.54 362.661 1991.54 371.562V495H1931.03Z" fill="white"/>
</svg>
